<svg xmlns="http://www.w3.org/2000/svg" viewBox="0 0 469.08 408.14"><defs><style>.cls-1{fill:#2cc784;stroke:#2cc784;}.cls-1,.cls-2{stroke-miterlimit:10;stroke-width:4.62px;}.cls-2{fill:#1c1a1a;stroke:#111010;}</style></defs><title>logo</title><g id="Capa_2" data-name="Capa 2"><g id="Capa_1-2" data-name="Capa 1"><path class="cls-1" d="M5.81,4.62H278.1a3.5,3.5,0,0,1,3,5.28L248.24,65.35a3.48,3.48,0,0,1-3,1.71H110.11a3.5,3.5,0,0,0-3,5.33l31,50.39a3.47,3.47,0,0,0,5.94,0c3.56-6,7.48-17.72-3-31.67a3.48,3.48,0,0,1,2.8-5.56h88a3.5,3.5,0,0,1,3,5.25l-91,156a3.49,3.49,0,0,1-6,0L2.78,9.85A3.5,3.5,0,0,1,5.81,4.62Z"/><path class="cls-2" d="M151.13,259.57,301.71,4a3.52,3.52,0,0,1,3-1.72H463.27a3.49,3.49,0,0,1,3.05,5.2l-84,150.26a3.5,3.5,0,0,1-3.05,1.79H313.37a3.5,3.5,0,0,1-3-5.23l49.53-86.67a3.49,3.49,0,0,0-3-5.22H337.18a3.48,3.48,0,0,0-3.07,1.82l-109,199.92a3.52,3.52,0,0,0,.07,3.47l9.65,16.07a3.49,3.49,0,0,0,6.09-.18l47-89.73a3.5,3.5,0,0,1,3.1-1.88H356.7a3.5,3.5,0,0,1,3,5.28L236.44,404.12a3.49,3.49,0,0,1-6-.08l-79.31-141A3.51,3.51,0,0,1,151.13,259.57Z"/></g></g></svg>